<?xml version="1.0" standalone="no"?>
<!DOCTYPE svg PUBLIC "-//W3C//DTD SVG 20010904//EN"
 "http://www.w3.org/TR/2001/REC-SVG-20010904/DTD/svg10.dtd">
<svg version="1.0" xmlns="http://www.w3.org/2000/svg"
 width="867.000000pt" height="866.000000pt" viewBox="0 0 867.000000 866.000000"
 preserveAspectRatio="xMidYMid meet">
<metadata>
Created by potrace 1.16, written by Peter Selinger 2001-2019
</metadata>
<g transform="translate(0.000000,866.000000) scale(0.100000,-0.100000)"
fill="#000000" stroke="none">
<path d="M4505 7560 c-502 -37 -914 -145 -1330 -350 -977 -479 -1596 -1345
-1741 -2434 -21 -156 -29 -560 -15 -731 52 -629 251 -1171 607 -1652 412 -556
1000 -958 1696 -1159 620 -178 1364 -189 2003 -28 442 112 884 332 1205 602
97 81 314 294 330 323 7 13 -30 53 -178 194 -207 197 -367 350 -484 464 l-77
75 -108 -105 c-349 -339 -720 -530 -1188 -610 -155 -27 -483 -37 -651 -20
-248 26 -513 93 -715 182 l-88 38 -521 -176 c-286 -96 -523 -174 -525 -171 -3
2 66 216 152 474 l156 469 -76 113 c-130 192 -236 432 -297 666 -54 209 -65
314 -65 606 0 207 4 290 18 379 153 968 851 1655 1837 1808 165 25 590 25 745
0 245 -41 430 -99 640 -202 222 -108 387 -225 588 -415 l98 -93 67 64 c37 36
205 194 374 353 266 250 306 291 297 307 -19 37 -266 276 -369 359 -452 362
-1010 581 -1670 655 -167 19 -554 27 -715 15z"/>
<path d="M3583 4725 c-125 -35 -214 -108 -270 -223 -37 -74 -38 -79 -38 -186
0 -105 2 -115 33 -179 42 -85 113 -156 199 -199 65 -32 72 -33 183 -33 111 0
118 1 182 34 85 42 159 119 201 208 29 62 32 77 32 163 0 113 -18 173 -75 253
-47 65 -120 121 -193 149 -68 26 -186 32 -254 13z"/>
<path d="M4732 4729 c-109 -21 -239 -127 -288 -233 -96 -209 -10 -452 194
-553 74 -37 79 -38 186 -38 103 0 116 2 176 31 127 60 206 159 236 292 66 297
-199 561 -504 501z"/>
<path d="M5850 4724 c-299 -80 -409 -461 -199 -689 91 -98 194 -139 334 -133
79 3 101 8 159 37 85 41 155 112 197 197 42 84 52 206 24 299 -64 220 -293
349 -515 289z"/>
</g>
</svg>
