<?xml version="1.0" encoding="utf-8"?>
<!-- Generator: Adobe Illustrator 26.3.1, SVG Export Plug-In . SVG Version: 6.00 Build 0)  -->
<svg version="1.1" id="Layer_1" xmlns="http://www.w3.org/2000/svg" xmlns:xlink="http://www.w3.org/1999/xlink" x="0px" y="0px"
	 viewBox="0 0 1080 1080" style="enable-background:new 0 0 1080 1080;" xml:space="preserve">
<style type="text/css">
	.st0{fill:#121214;}
	.st1{fill:#3733FF;}
</style>
<g>
	<g>
		<path class="st0" d="M252.9,583.1l18.7,17.8c-7.3,8.5-16.2,14.9-26.7,19.3c-10.5,4.4-22.3,6.7-35.1,6.7c-11.9,0-22.9-2-33-5.9
			c-10.2-3.9-19-9.5-26.5-16.7c-7.5-7.2-13.3-15.7-17.5-25.5c-4.1-9.8-6.2-20.5-6.2-32s2.1-22.3,6.2-32c4.2-9.8,10-18.3,17.6-25.5
			c7.6-7.2,16.4-12.8,26.5-16.7c10.1-3.9,21.1-5.9,33.2-5.9c12.8,0,24.4,2.2,34.9,6.6c10.5,4.4,19.4,10.9,26.7,19.5l-18.7,17.6
			c-5.7-6.1-11.9-10.6-18.9-13.7c-7-3-14.5-4.6-22.7-4.6c-8.2,0-15.6,1.3-22.4,4c-6.8,2.7-12.6,6.5-17.6,11.4
			c-5,4.9-8.8,10.7-11.6,17.4c-2.8,6.7-4.1,14-4.1,22c0,8,1.4,15.3,4.1,22c1.8,4.5,4.1,8.5,7,12.2l-8,23.6l26.2-8.8
			c1.3,0.6,2.6,1.2,3.9,1.7c6.7,2.7,14.2,4,22.4,4c8.1,0,15.7-1.5,22.7-4.6C241,594,247.3,589.4,252.9,583.1z"/>
		<path class="st0" d="M378.5,510.2c-7.5-3.7-16-5.6-25.5-5.6c-10.4,0-19.5,2-27.5,6.1c-4.7,2.4-8.7,5.5-12.1,9.1v-60.2h-27.8v165.1
			h27.8v-60.1c0-8,1.4-14.6,4.1-19.9c2.7-5.3,6.6-9.2,11.7-11.9c5-2.7,10.8-4,17.4-4c8.9,0,15.8,2.6,20.8,7.8
			c5,5.2,7.5,13.1,7.5,23.6v64.5h27.8v-68.1c0-12-2.2-21.8-6.5-29.5C391.9,519.6,386,513.9,378.5,510.2z"/>
		<path class="st0" d="M515.4,520.6c-3.4-3.8-7.2-6.9-11.6-9.4c-7.9-4.4-16.7-6.6-26.5-6.6c-11.4,0-21.7,2.5-30.8,7.6
			c-9.1,5-16.3,12.1-21.5,21.1c-5.2,9-7.8,19.7-7.8,32c0,12.3,2.6,23,7.8,32c5.2,9,12.3,16.1,21.5,21.2c9.1,5.1,19.4,7.7,30.8,7.7
			c10.2,0,19.2-2.2,27-6.7c4.7-2.7,8.8-6.2,12.3-10.6v15.7h26.5V506h-27.8V520.6z M511.2,585.2c-3.1,5.6-7.3,9.9-12.7,12.9
			c-5.3,3-11.3,4.4-18,4.4c-6.7,0-12.6-1.5-17.9-4.4c-5.3-3-9.5-7.3-12.6-12.9c-3.1-5.6-4.7-12.2-4.7-19.8c0-7.7,1.6-14.3,4.7-19.9
			c3.1-5.6,7.3-9.8,12.6-12.8c5.3-3,11.2-4.4,17.9-4.4c6.7,0,12.7,1.5,18,4.4c5.3,3,9.6,7.2,12.7,12.8c3.1,5.6,4.7,12.2,4.7,19.9
			C515.9,572.9,514.3,579.5,511.2,585.2z"/>
		<path class="st0" d="M612,603.4c-5.2,0-9.2-1.6-12.1-4.7c-2.9-3.1-4.3-7.5-4.3-13.1v-56.5h31.8v-22.2h-31.8v-27.1h-27.8v106.6
			c0,13.2,3.6,23.2,10.7,29.9c7.1,6.8,17.2,10.1,30.3,10.1c5,0,9.9-0.7,14.7-2c4.7-1.3,8.7-3.3,12-6l-7.8-19.8
			C623.4,601.8,618.2,603.4,612,603.4z"/>
		<path class="st0" d="M744,512.2c-9-5-19.3-7.6-31-7.6c-9.6,0-18.4,2.2-26.4,6.6c-4.4,2.4-8.3,5.6-11.7,9.4v-60.9h-27.8v165.1h26.5
			V609c3.5,4.4,7.7,7.9,12.5,10.6c7.9,4.4,16.8,6.7,26.9,6.7c11.7,0,22.1-2.6,31-7.7c9-5.1,16.1-12.2,21.4-21.2
			c5.3-9,7.9-19.7,7.9-32c0-12.3-2.6-23-7.9-32C760.1,524.3,753,517.2,744,512.2z M740.3,585.2c-3.1,5.6-7.3,9.9-12.6,12.9
			c-5.3,3-11.2,4.4-17.9,4.4s-12.7-1.5-18-4.4c-5.3-3-9.6-7.3-12.7-12.9c-3.1-5.6-4.7-12.2-4.7-19.8c0-7.7,1.6-14.3,4.7-19.9
			c3.1-5.6,7.3-9.8,12.7-12.8c5.3-3,11.3-4.4,18-4.4s12.6,1.5,17.9,4.4c5.3,3,9.5,7.2,12.6,12.8c3.1,5.6,4.7,12.2,4.7,19.9
			C745,572.9,743.4,579.5,740.3,585.2z"/>
		<path class="st0" d="M802.6,453c-5.2,0-9.5,1.6-12.8,4.8c-3.3,3.2-5,7.2-5,11.9c0,4.6,1.7,8.5,5,11.8c3.3,3.3,7.6,4.9,12.8,4.9
			c5.3,0,9.6-1.7,12.9-5c3.3-3.3,4.9-7.5,4.9-12.3c0-4.6-1.7-8.4-5-11.5C812.1,454.5,807.8,453,802.6,453z"/>
		<rect x="788.6" y="506" class="st0" width="27.8" height="118.8"/>
		<path class="st0" d="M945.6,533.5c-5.2-9.2-12.3-16.3-21.4-21.4c-9-5-19.4-7.6-30.9-7.6c-11.9,0-22.4,2.6-31.7,7.8
			c-9.3,5.2-16.5,12.3-21.8,21.5c-5.3,9.1-7.9,19.6-7.9,31.5c0,11.7,2.7,22.2,8.1,31.4c5.4,9.2,13,16.4,22.9,21.7
			c9.9,5.3,21.4,7.9,34.6,7.9c10.4,0,19.6-1.7,27.7-5s14.8-8.1,20.1-14.3l-14.9-17.1c-4.2,4.4-8.9,7.7-14.2,9.8
			c-5.3,2.1-11.3,3.1-18,3.1c-7.7,0-14.5-1.5-20.5-4.4c-5.9-3-10.5-7.2-13.8-12.7c-2.1-3.5-3.5-7.2-4.2-11.3H953
			c0.1-1.3,0.3-2.7,0.3-4.2c0.1-1.5,0.1-2.8,0.1-4C953.4,553.6,950.8,542.7,945.6,533.5z M863.4,543.7c2.9-5.3,6.9-9.4,12-12.3
			c5.1-3,11.1-4.4,17.9-4.4c6.7,0,12.6,1.5,17.7,4.4c5.1,3,9.2,7,12.1,12.2c2.1,3.7,3.4,7.8,3.9,12.2h-67.6
			C860.2,551.3,861.5,547.3,863.4,543.7z"/>
	</g>
	<g>
		<path class="st1" d="M183,536.7c-5.8,0-10.4,4.7-10.4,10.5c0,5.8,4.7,10.4,10.4,10.4c5.8,0,10.5-4.7,10.5-10.4
			C193.4,541.4,188.7,536.7,183,536.7z"/>
		<path class="st1" d="M211.1,536.7c-5.8,0-10.4,4.7-10.4,10.5c0,5.8,4.7,10.4,10.4,10.4c5.8,0,10.5-4.7,10.5-10.4
			C221.6,541.4,216.9,536.7,211.1,536.7z"/>
		<path class="st1" d="M239.2,536.7c-5.8,0-10.4,4.7-10.4,10.5c0,5.8,4.7,10.4,10.4,10.4c5.8,0,10.5-4.7,10.5-10.4
			C249.7,541.4,245,536.7,239.2,536.7z"/>
	</g>
</g>
</svg>
